<svg xmlns="http://www.w3.org/2000/svg" viewBox="0 0 625 625"><g stroke="#000" stroke-width="6"><path d="M170 77.1c-30.3 3.1-57.1 16.5-73.3 36.6-5.9 7.3-11.7 17.2-14.1 24-1.4 4-1.4 4.1 1.2 6.5 1.5 1.4 7.4 6 13.2 10.3 23.2 17.4 50.8 44.1 66.7 64.6 23.5 30.2 40.6 65 49.4 100.6 2.1 8.7 3.7 13.3 4.6 13.3.7 0 1.3-.3 1.3-.8 0-.4.7-5.7 1.5-11.7 1.4-10.7 3-25.3 5.7-50 2.1-19.1 1.7-97.1-.5-115-2.4-19.1-6.2-42-9.1-54-1.4-5.5-3-12.6-3.7-15.7-.6-3.1-1.5-6.2-2-6.9-1.5-2.6-23.9-3.5-40.9-1.8zm34.5 2.7c4 .7 4 .7 5.7 7.7 3.7 14.8 8.8 40.8 10.3 52.1 5.7 42.2 5.9 102.1.5 151.9-1.9 17.9-3.3 27.5-3.9 27.5-.4 0-2.4-5.5-4.5-12.3-5.4-17.3-9.8-28.2-17.8-44-20.6-40.6-52.8-77.3-98-111.8-6.5-5-11.8-9.6-11.8-10.3 0-2.1 4-10.6 7.8-16.6 10.3-16.4 25.3-28.6 44.8-36.3 9.9-4 15-5.3 27.4-7.2 9.3-1.4 33.1-1.8 39.5-.7zm218-2.7c-11.8 1.1-13.5 1.6-13.5 3.7 0 1.8 4.5 18.6 5.3 19.9.4.6 5.2 21.9 8.2 35.9 2.2 10.3 5.6 38.6 6.6 55.1 1.6 27.1-.4 59.1-6.1 94.8-1.2 7.4-1.3 10.5-.2 10.5.4 0 4.1-7.8 8.1-17.3 9.1-21.2 34.5-73 43.8-89.2 14.2-24.6 32.7-53.2 45.9-71 7.5-10.2 7.5-8.9-.4-16.4-21.7-20.5-56.7-29.8-97.7-26zm46.5 4.4c11.1 2 25.6 7.2 34.1 12.2 6.9 4 19.9 14.8 19.9 16.5 0 .6-3.8 6.3-8.4 12.7-14.1 19.6-33.9 50.8-45.6 72-8.6 15.7-25.4 49.5-33.5 67.6-3.7 8.2-7 15.2-7.3 15.5-.6.6.3-9.7 2.4-27 2.2-18.7 2.2-62.6 0-81-3.3-26.8-9.2-56.2-15.8-78.4-1.6-5.4-2.8-10-2.6-10.1.2-.2 3-.8 6.3-1.4 8.8-1.5 39.2-.6 50.5 1.4z"/><path d="M223 80.9c0 .5 1.6 7.3 3.5 15.2 9.9 41.3 13.9 76.3 13.8 120.4-.1 35.6-2.3 64.9-6.9 92.3-2.5 14.6-1.5 14.2 7.9-4 15.6-29.8 30.1-52.8 56.2-89.3 32.8-45.8 52-80.2 65.1-116.5 2.7-7.7 2.5-9.5-1.3-8.5-42.6 10.7-63.5 9.8-115.3-5-19.2-5.5-23-6.3-23-4.6zm20.8 6.7c48 13.9 68.1 15.5 104.9 8.2 6.2-1.2 11.5-1.9 11.9-1.6 1.1 1.1-9.9 27.3-19.6 46.3-10.6 21-21.9 39.7-37 61-31.7 44.9-43.6 63-56.9 87-4 7.1-7.7 13.4-8.3 14-1.1 1.1-1-1 1.7-25 3.5-31.3 3.7-82.2.5-115.5-1.4-15.1-6.1-42.9-10.5-61.9-3.6-15.7-3.9-17.1-3-17.1.3 0 7.6 2.1 16.3 4.6zm143.4-5.1c-3 .7-5.7 1.6-6.2 2.1s-2.6 6.3-4.8 12.9c-9.8 29.2-31 74.3-44.2 94-5.8 8.6-6 7.6 2.9 16.8 30.5 31.6 52.7 71.1 62.6 110.9 1.4 5.6 2.5 10.7 2.5 11.4 0 2.6 2.1 6.7 2.9 5.8.5-.5 2.3-9.2 4-19.4 11.8-71 13.2-119.9 5-171.5-2.1-13-9.4-46.2-12.5-56.5-2.6-8.7-2.8-8.8-12.2-6.5zm9.7 9.2c9.5 33.6 14 60.9 16.6 99.3 1.5 20.9 1.5 25.1 0 45.8-1.6 23.8-3.5 42.2-6 58.2-3 19.3-4.8 28.1-5.5 27.3-.4-.4-2.2-5.8-3.9-11.8-9.2-32.1-24.9-61.3-47.7-89-4.5-5.5-10.7-12.5-13.8-15.5s-5.6-5.9-5.6-6.4 2.9-5.7 6.3-11.5c16.3-27.2 29.8-56.2 41.4-89.1 2.4-6.8 4.6-12.6 4.8-12.8.6-.6 6.6-2 9.1-2.1 1.9-.1 2.5 1 4.3 7.6zm133.6 35.5c-6.7 9-26.7 38.9-36.7 54.8-22.4 35.5-44.5 79.2-62.3 123-14.8 36.5-26.3 74-22.7 74 .4 0 4.9-5.8 10-12.9 19.9-27.5 43.6-53.4 78.6-86.1 22.2-20.7 32.4-32.8 39.4-46.5 15.2-30.2 17.4-72.6 5.2-101.8-1.7-4.1-3.9-8.2-5-9.2-1.8-1.6-2.1-1.4-6.5 4.7zm8.5 5.1c5.1 11.2 7.5 25.1 7.5 42.7-.1 18.1-1.9 29.7-7 44.4-6.7 19.4-17.2 33.8-41.1 56-32.8 30.5-58.1 57.6-75.8 80.8-7.3 9.7-10.7 13.2-9.3 9.5.3-.7 1.4-4.7 2.6-8.9 10.2-36.5 39.4-103 64.4-146.8 15.4-27 52.9-84 55.3-84 .3 0 1.8 2.8 3.4 6.3zM75.4 161.7c-1.6 12-.8 35.2 1.5 46.1 5.3 25.1 22.3 59 37.2 74.2 3 3.1 12.6 11.9 21.4 19.7 34.2 30.1 52.3 51.7 70 83.7 3.3 6 6.5 10.8 7 10.7 2.1-.3-1.1-29.9-6.1-56.1-2.5-13.3-11.7-42-17.9-56-19.1-43-54.1-84.9-102.6-122.8-3.7-2.9-7.4-5.2-8.2-5.2-1.1 0-1.8 1.6-2.3 5.7zm13.1 5.2c12.9 10.1 27.6 23.3 38.5 34.5 45.5 46.7 69 92.4 79.5 154.9 1.3 7.9 3.4 28.1 3 28.6-.6.6-.3 1-5.5-7.9-16.8-29.1-35.2-50-73.1-83.2-19.6-17.2-25.3-24.6-37-47.8-11.9-23.8-16.2-40.6-16.2-64.5-.1-17 .5-22.1 2.6-20.9.7.4 4.4 3.3 8.2 6.3z"/><path d="M311.8 220.2c-31.9 41.1-59.2 87-70.7 118.7-12.4 34.2-15.6 59.9-14.5 119.1.6 40.2 0 55.7-3.2 77.2-2 13.9-2.2 13.2 3.1 12.5 5.6-.8 9.4-2.8 14.5-7.4 10.9-9.7 13.2-18.8 19-74.9 4.4-41.9 5.1-47.6 8.1-59.9 7.7-31.2 23.5-49.5 42.8-49.6 11.5-.1 21.1 7 28.4 20.8 8.5 16.4 11.2 33 13.7 85.8 2.3 48.7 5.6 67.4 13.5 77.1 3.6 4.3 11.3 9 12.7 7.6.4-.4 1-12.7 1.2-27.3.3-25.2 1.8-44.7 5.1-67.9 4-27.6 7.5-63.5 7.5-76.2 0-40.9-13.1-83.5-37.1-120.3-12-18.5-32.7-43.5-35.9-43.5-1.1 0-4.4 3.3-8.2 8.2zm20.5 8.3c30.8 36.6 48.8 75 55.8 119 1.9 11.7 1.7 48.1-.4 63.5-8.4 63.4-11 92.2-10.8 118.2 0 8.2-.3 14.8-.7 14.8s-2.4-1.4-4.4-3c-4.4-3.7-8.4-11.8-10.4-21-1.9-9.4-5.1-45-6.4-72-1.3-28.5-2.5-40-5.6-52.5-4.7-19-13.5-32.9-24.6-39-4.7-2.7-6.2-3-13.8-3-7.3 0-9.3.4-14.2 2.8-6.8 3.3-16 12.2-20.6 20-9.9 16.5-14.1 36-19.2 89.2-4.9 51.5-7.9 63.4-18.1 73-4.2 3.9-12.1 7.6-13.4 6.3-.3-.3.1-4.7.9-9.9 3-18.7 3.7-36.4 3.4-83.4-.3-50.2 0-56.2 4.8-79.3 5.2-25.2 15.2-51 30.1-77 14.9-26.2 52.9-80.8 55.6-79.9.7.2 6 6.1 12 13.2zm157 76.7c-40.7 40.3-56.5 60-71.5 89.7-13.8 27.2-20 53.8-24.3 103.6-1.6 18-2.1 46.6-1 48.5 1.6 2.6 9.9-.4 22.5-7.8 38.3-22.8 66.5-64.3 78.8-115.7 5.1-21.2 9.1-51 9.2-67 0-8.5 2.6-36.5 4.1-44.9 1.1-6.5 6.2-22.3 8.5-26.8 4.5-8.6-1.6-3.9-26.3 20.4zm20.7-14.8c0 .2-.7 2.3-1.6 4.7-4.6 13-6.8 28.8-8.5 61.3-3 58.4-15.5 101.7-39.4 136.1-13.3 19.4-38.4 41.5-56.5 49.9-9.4 4.4-9 5-9-13.5 0-33.1 5.4-75.7 12.9-101.4 4.1-14 5.2-16.7 12-30.4 14.4-28.6 31.4-50.5 66.5-85.3 19.2-19.1 23.6-23.1 23.6-21.4zm-394.7 13.2c.4 1.6 1.3 6 2.1 9.9 1.2 5.3 1.6 13.6 1.6 34.1 0 54.9 6.3 88 23.5 122.9 12.8 26.1 27.9 45.1 50.2 63 11.8 9.4 16.8 12.4 18.3 10.9 2.4-2.4 3.4-17.8 3.5-50.9 0-27.6-.3-36.1-1.8-45.1-8-50.9-31.4-89.4-82.1-135.4-13.8-12.5-16.3-14-15.3-9.4zm27 24.6c33.8 33.7 50 58.2 61.1 92.3 6.8 20.8 9.1 43.7 8.2 81.3-.7 29.4-1.4 38.3-3.2 38.9-1.7.5-16.3-10.6-25.5-19.5-18.1-17.2-31.3-36.2-41.4-59.7C127 427.8 122 398.2 122 345c0-19.1-.4-28-1.4-31.8-1.1-4.3-1.1-5.2 0-5.2.7 0 10.5 9.1 21.7 20.2z"/></g></svg>